Coordinates
version=1
nRows=22
nColumns=33
inDegrees=yes

Units are S.I. units (second, meters, Newtons, ...)
Angles are in degrees.

endheader
time	ground_thorax_rot_x	ground_thorax_rot_y	ground_thorax_rot_z	ground_thorax_tx	ground_thorax_ty	ground_thorax_tz	clav_prot_r	clav_elev_r	scapula_abduction_r	scapula_elevation_r	scapula_upward_rot_r	scapula_winging_r	shoulder_elv_r	plane_of_elev_r	axial_rot_r	elbow_flexion_r	pro_sup_r	wrist_flex_r	wrist_dev_r	clav_prot_l	clav_elev_l	scapula_abduction_l	scapula_elevation_l	scapula_upward_rot_l	scapula_winging_l	shoulder_elv_l	plane_of_elev_l	axial_rot_l	elbow_flexion_l	pro_sup_l	wrist_flex_l	wrist_dev_l	
9.4800	-21.798416	-39.815443	56.707366	-7.832852	763.414288	-34.525363	45.000000	-45.000000	39.813763	-45.000000	-45.000000	-1089.817016	-2263.976055	-90.000000	33.585556	1065.532257	131.454129	11.947403	8.638237	-3.516669	36.493934	-30.399973	-45.000000	-34.527247	-3501.558819	-2262.627377	141.744827	180.000000	1436.628939	-319.613204	13.406426	-19.480377	
9.4900	-22.188128	-39.678419	56.140335	-10.417314	764.285323	-34.541925	45.000000	-45.000000	39.837710	-45.000000	-45.000000	-1089.861883	-2263.861692	-90.000000	33.495397	1065.491956	131.274044	11.949334	8.649944	-3.511270	36.554107	-30.505402	-45.000000	-34.314401	-3501.458757	-2262.565782	141.779965	180.000000	1436.667259	-319.448008	13.411698	-19.556946	
9.5000	-22.578935	-39.535750	55.574197	-12.998578	765.228288	-34.558286	45.000000	-45.000000	39.857947	-45.000000	-45.000000	-1089.901260	-2263.734736	-90.000000	33.392669	1065.439502	131.090683	11.945671	8.670137	-3.497912	36.622392	-30.612104	-45.000000	-34.093543	-3501.363820	-2262.500976	141.823029	180.000000	1436.700744	-319.311764	13.419611	-19.627489	
9.5100	-22.928258	-39.404615	55.062821	-15.576539	766.244849	-34.576955	45.000000	-45.000000	39.909969	-45.000000	-44.999999	-1089.959056	-2263.603999	-90.000000	33.286555	1065.375104	130.901822	11.935658	8.701059	-3.487242	36.691618	-30.700001	-45.000000	-33.918038	-3501.284491	-2262.423838	141.871396	180.000000	1436.733849	-319.205755	13.431219	-19.693703	
9.5200	-23.283425	-39.266843	54.545076	-18.150595	767.335754	-34.600318	45.000000	-45.000000	39.951522	-45.000000	-44.999999	-1090.009625	-2263.457336	-90.000000	33.164849	1065.297263	130.707311	11.928651	8.738184	-3.475633	36.763782	-30.791957	-45.000000	-33.732323	-3501.202825	-2262.346295	141.920799	180.000000	1436.761110	-319.131845	13.452815	-19.758016	
9.5300	-23.635621	-39.125174	54.032825	-20.721119	768.501548	-34.630570	45.000000	-45.000000	39.989474	-45.000000	-44.999998	-1090.059191	-2263.297377	-90.000000	33.030223	1065.206138	130.503919	11.927873	8.780567	-3.470334	36.835030	-30.885194	-45.000000	-33.549715	-3501.117439	-2262.267656	141.966719	180.000000	1436.784383	-319.090343	13.486057	-19.822130	
9.5400	-24.017735	-38.965124	53.484092	-23.287199	769.741918	-34.669651	45.000000	-45.000000	39.993988	-45.000000	-44.999997	-1090.089882	-2263.116731	-90.000000	32.874997	1065.103517	130.290234	11.938992	8.824136	-3.470103	36.905576	-30.997671	-45.000000	-33.331468	-3501.014397	-2262.196582	142.004815	180.000000	1436.800447	-319.082005	13.534088	-19.887012	
9.5500	-24.393268	-38.801896	52.946979	-25.847261	771.056040	-34.719224	45.000000	-45.000000	39.996752	-45.000000	-44.999995	-1090.121942	-2262.925898	-90.000000	32.709696	1064.990496	130.062133	11.955738	8.871900	-3.474952	36.974573	-31.111413	-45.000000	-33.119242	-3500.908749	-2262.123290	142.040482	180.000000	1436.813847	-319.105234	13.589791	-19.948647	
9.5600	-24.769189	-38.631536	52.410325	-28.397390	772.441833	-34.780618	45.000000	-45.000000	39.990128	-45.000000	-44.999990	-1090.148650	-2262.720765	-90.000000	32.530129	1064.870595	129.817930	11.976741	8.922632	-3.477735	37.045890	-31.229577	-45.000000	-32.898724	-3500.801566	-2262.050493	142.077979	180.000000	1436.823733	-319.158270	13.652041	-20.006047	
9.5700	-25.146632	-38.455088	51.873104	-30.932874	773.896295	-34.854788	45.000000	-45.000000	39.976189	-45.000000	-44.999983	-1090.169751	-2262.503567	-90.000000	32.338436	1064.738620	129.557612	12.001622	8.977396	-3.476729	37.119479	-31.351646	-45.000000	-32.670248	-3500.693246	-2261.977021	142.117216	180.000000	1436.829652	-319.237549	13.719464	-20.058620	
9.5800	-25.517769	-38.274697	51.343528	-33.448197	775.415100	-34.942223	45.000000	-45.000000	39.959044	-45.000000	-44.999969	-1090.186924	-2262.274036	-90.000000	32.134352	1064.598633	129.280492	12.029530	9.034261	-3.475705	37.192456	-31.475617	-45.000000	-32.444087	-3500.583745	-2261.902794	142.155879	180.000000	1436.832276	-319.338148	13.793810	-20.109163	
9.5900	-25.885134	-38.090832	50.819344	-35.937397	776.992565	-35.042880	45.000000	-45.000000	39.937179	-45.000000	-44.999945	-1090.198655	-2262.034076	-90.000000	31.919737	1064.449850	128.987261	12.058248	9.093084	-3.472575	37.264272	-31.602043	-45.000000	-32.217757	-3500.473208	-2261.827882	142.194695	180.000000	1436.831271	-319.453685	13.872984	-20.157561	
9.6000	-26.240508	-37.903000	50.309587	-38.394734	778.621786	-35.156153	45.000000	-45.000000	39.914158	-45.000000	-44.999902	-1090.208437	-2261.783062	-90.000000	31.694019	1064.298961	128.676911	12.086189	9.152070	-3.472493	37.331105	-31.729405	-45.000000	-32.000950	-3500.361584	-2261.753490	142.230192	180.000000	1436.830072	-319.577320	13.958958	-20.208753	
9.6100	-26.593723	-37.706775	49.803467	-40.815069	780.295062	-35.280941	45.000000	-45.000000	39.880798	-45.000000	-44.999824	-1090.210825	-2261.521963	-90.000000	31.458072	1064.146834	128.350338	12.112545	9.209658	-3.467458	37.395154	-31.861261	-45.000000	-31.779710	-3500.249684	-2261.680350	142.265854	180.000000	1436.829720	-319.701199	14.045174	-20.260531	
9.6200	-26.935425	-37.504957	49.313377	-43.194193	782.004370	-35.415776	45.000000	-45.000000	39.848041	-45.000000	-44.999684	-1090.215048	-2261.255949	-90.000000	31.217130	1063.992661	128.004530	12.136580	9.267719	-3.466976	37.450144	-31.993568	-45.000000	-31.571870	-3500.137601	-2261.606501	142.294544	180.000000	1436.833894	-319.819002	14.134145	-20.318060	
9.6300	-27.277644	-37.295974	48.823169	-45.528840	783.741863	-35.559039	45.000000	-45.000000	39.806065	-45.000000	-44.999434	-1090.214051	-2260.986768	-90.000000	30.972854	1063.833196	127.637999	12.160068	9.325821	-3.463554	37.498844	-32.130489	-45.000000	-31.363853	-3500.025433	-2261.533374	142.321392	180.000000	1436.840666	-319.924363	14.220321	-20.378339	
9.6400	-27.614863	-37.083015	48.338531	-47.816697	785.500208	-35.709174	45.000000	-45.000000	39.763041	-45.000000	-44.998987	-1090.213551	-2260.720103	-90.000000	30.730971	1063.664883	127.246926	12.185250	9.385436	-3.464515	37.537873	-32.268521	-45.000000	-31.167107	-3499.912920	-2261.459088	142.341339	180.000000	1436.850971	-320.013349	14.306515	-20.444998	
9.6500	-27.986842	-36.848291	47.808009	-50.056226	787.272728	-35.864867	45.000000	-45.000000	39.676721	-45.000000	-44.998182	-1090.184101	-2260.449212	-90.000000	30.484281	1063.489564	126.835028	12.219298	9.439710	-3.440510	37.579535	-32.427780	-45.000000	-30.925152	-3499.795861	-2261.390179	142.368231	180.000000	1436.857877	-320.081882	14.379686	-20.507035	
9.6600	-28.381478	-36.595015	47.245755	-52.246755	789.053618	-36.025134	45.000000	-45.000000	39.566418	-45.000000	-44.996753	-1090.138454	-2260.183314	-90.000000	30.241753	1063.304067	126.403000	12.264681	9.490698	-3.403344	37.617452	-32.600393	-45.000000	-30.656879	-3499.677096	-2261.324581	142.395049	180.000000	1436.865233	-320.130447	14.443801	-20.568896	
9.6700	-28.791304	-36.328675	46.656849	-54.388260	790.837961	-36.189317	45.000000	-45.000000	39.434547	-45.000000	-44.994157	-1090.073453	-2259.919578	-90.000000	30.000228	1063.118576	125.950441	12.319794	9.535932	-3.349943	37.658379	-32.783746	-45.000000	-30.361083	-3499.559619	-2261.264502	142.429358	180.000000	1436.869226	-320.160357	14.497405	-20.627881	
9.6800	-29.175085	-36.069207	46.092907	-56.481332	792.622025	-36.357024	45.000000	-45.000000	39.325291	-45.000000	-44.989609	-1090.017064	-2259.670110	-90.000000	29.771946	1062.934701	125.470889	12.377905	9.581097	-3.303010	37.695968	-32.954415	-45.000000	-30.087489	-3499.452228	-2261.203028	142.463152	180.000000	1436.875085	-320.176336	14.549172	-20.691259	
9.6900	-29.524038	-35.825049	45.565395	-58.526632	794.403265	-36.528006	45.000000	-45.000000	39.241887	-45.000000	-44.981175	-1089.968680	-2259.430578	-90.000000	29.552699	1062.763654	124.956931	12.433505	9.624750	-3.257369	37.738715	-33.108627	-45.000000	-29.837209	-3499.358590	-2261.138706	142.504230	180.000000	1436.878276	-320.181944	14.597491	-20.755460	
